<svg xmlns:dc="http://purl.org/dc/elements/1.1/" xmlns:cc="http://creativecommons.org/ns#" xmlns:rdf="http://www.w3.org/1999/02/22-rdf-syntax-ns#" xmlns:svg="http://www.w3.org/2000/svg" xmlns="http://www.w3.org/2000/svg" xmlns:xlink="http://www.w3.org/1999/xlink" id="svg527174" version="1.1" viewBox="332.57 321.19 358.87 125.62">   <metadata id="metadata527180">     <rdf:rdf>       <cc:work rdf:about="">         <dc:format>image/svg+xml</dc:format>         <dc:type rdf:resource="http://purl.org/dc/dcmitype/StillImage"></dc:type>       </cc:work>     </rdf:rdf>   </metadata>   <defs id="defs527178"></defs>   <linearGradient spreadMethod="pad" y2="30%" x2="-10%" y1="120%" x1="30%" id="3d_gradient2-logo-f2c5aaa6-0462-47a8-a254-0b5cebf44e5d">     <stop id="stop527155" stop-opacity="1" stop-color="#ffffff" offset="0%"></stop>     <stop id="stop527157" stop-opacity="1" stop-color="#000000" offset="100%"></stop>   </linearGradient>   <linearGradient gradientTransform="rotate(-30)" spreadMethod="pad" y2="30%" x2="-10%" y1="120%" x1="30%" id="3d_gradient3-logo-f2c5aaa6-0462-47a8-a254-0b5cebf44e5d">     <stop id="stop527160" stop-opacity="1" stop-color="#ffffff" offset="0%"></stop>     <stop id="stop527162" stop-opacity="1" stop-color="#cccccc" offset="50%"></stop>     <stop id="stop527164" stop-opacity="1" stop-color="#000000" offset="100%"></stop>   </linearGradient>   <g id="logo-group">     <image xlink:href="" id="container" x="272" y="144" width="480" height="480" style="display: none;" transform="translate(0 0)"></image>     <g id="logo-center" transform="translate(0 0)">       <image xlink:href="" id="icon_container" x="0" y="0" style="display: none;"></image>       <g id="slogan" style="font-style:normal;font-weight:400;font-size:32px;line-height:1;font-family:'Brandmark Dots 1 Color';font-variant-ligatures:none;text-align:center;text-anchor:middle" transform="translate(0 0)">         <path id="path527182" style="font-style:normal;font-weight:400;font-size:32px;line-height:1;font-family:'Brandmark Dots 1 Color';font-variant-ligatures:none;text-align:center;text-anchor:middle" d="m 442.4325,-1.088 6.24,-12.064 v 4.672 c 0,1.152 0.96,2.112 2.112,2.112 1.184,0 2.144,-0.96 2.144,-2.112 v -11.808 c 0,-0.96 -0.672,-1.792 -1.6,-2.048 -0.928,-0.224 -1.92,0.192 -2.368,1.024 l -8.352,15.456 -8.128,-15.424 c -0.448,-0.864 -1.44,-1.28 -2.368,-1.056 -0.96,0.256 -1.6,1.088 -1.6,2.048 v 18.176 c 0,1.152 0.96,2.112 2.112,2.112 1.184,0 2.144,-0.96 2.144,-2.112 V -12.96 l 5.952,11.84 c 0.384,0.704 1.088,1.12 1.856,1.12 0.768,0 1.472,-0.416 1.856,-1.088 z m 6.24,-1.024 c 0,1.152 0.96,2.112 2.112,2.112 1.184,0 2.144,-0.96 2.144,-2.112 0,-1.184 -0.96,-2.144 -2.144,-2.144 -1.152,0 -2.112,0.96 -2.112,2.144 z" stroke-width="0" stroke-linejoin="miter" stroke-miterlimit="2" fill="#7c3aed" stroke="#7c3aed" transform="translate(1.1368683772161603e-13 372.968) translate(385.19074999999987 39.3819115) scale(1.5) translate(-428.5125 22.396059)"></path>         <path id="path527184" style="font-style:normal;font-weight:400;font-size:32px;line-height:1;font-family:'Brandmark Dots 1 Color';font-variant-ligatures:none;text-align:center;text-anchor:middle" d="m 458.653,-0.192 c 1.056,0.48 2.304,0.032 2.816,-1.024 l 2.016,-4.224 h 10.752 c 0.736,0 1.376,-0.384 1.76,-0.96 0.736,-1.088 0.16,-2.016 -0.192,-2.752 l -5.696,-12.032 c -0.352,-0.736 -1.12,-1.216 -1.92,-1.216 -0.832,0 -1.568,0.48 -1.92,1.216 l -8.64,18.144 c -0.48,1.056 -0.032,2.336 1.024,2.848 z m 6.56,-8.896 2.976,-6.272 3.008,6.272 z m 9.472,6.976 c 0,1.152 0.96,2.112 2.112,2.112 1.184,0 2.144,-0.96 2.144,-2.112 0,-1.184 -0.96,-2.144 -2.144,-2.144 -1.152,0 -2.112,0.96 -2.112,2.144 z" stroke-width="0" stroke-linejoin="miter" stroke-miterlimit="2" fill="#7c3aed" stroke="#7c3aed" transform="translate(1.1368683772161603e-13 372.968) translate(428.5772749999999 39.376000000000005) scale(1.5) translate(-457.43685 22.4)"></path>         <path id="path527186" style="font-style:normal;font-weight:400;font-size:32px;line-height:1;font-family:'Brandmark Dots 1 Color';font-variant-ligatures:none;text-align:center;text-anchor:middle" d="m 488.1435,-2.112 v -18.176 c 0,-1.152 -0.832,-2.112 -2.112,-2.112 h -6.752 c -1.152,0 -2.112,0.96 -2.112,2.112 0,1.184 0.96,2.144 2.112,2.144 h 4.64 v 16.032 c 0,1.152 0.928,2.112 2.112,2.112 1.184,0 2.112,-0.96 2.112,-2.112 z m 2.496,-18.176 c 0,1.184 0.96,2.144 2.144,2.144 1.152,0 2.112,-0.96 2.112,-2.144 0,-1.152 -0.96,-2.112 -2.112,-2.112 -1.184,0 -2.144,0.96 -2.144,2.112 z" stroke-width="0" stroke-linejoin="miter" stroke-miterlimit="2" fill="#7c3aed" stroke="#7c3aed" transform="translate(1.1368683772161603e-13 372.968) translate(458.17324999999994 39.376000000000005) scale(1.5) translate(-477.1675 22.4)"></path>         <path id="path527188" style="font-style:normal;font-weight:400;font-size:32px;line-height:1;font-family:'Brandmark Dots 1 Color';font-variant-ligatures:none;text-align:center;text-anchor:middle" d="m 499.9735,-11.2 c 0,-4.16 3.36,-7.52 7.52,-7.52 2.016,0 3.648,0.64 4.928,1.376 1.184,0.64 2.368,0.608 2.944,-0.256 0.672,-0.96 0.608,-2.24 -0.288,-2.976 -2.432,-1.984 -5.44,-2.4 -7.584,-2.4 -6.496,0 -11.776,5.248 -11.776,11.776 0,4.736 2.816,8.8 6.88,10.688 1.632,0.736 3.264,1.088 4.896,1.088 1.984,0 2.688,-0.96 2.688,-2.016 0,-0.992 -0.64,-1.76 -2.176,-1.92 -1.568,-0.16 -2.848,-0.512 -4.064,-1.216 -2.4,-1.312 -3.968,-3.744 -3.968,-6.624 z m 11.936,7.52 c 0,1.184 0.96,2.144 2.112,2.144 1.184,0 2.144,-0.96 2.144,-2.144 0,-1.152 -0.96,-2.112 -2.144,-2.112 -1.152,0 -2.112,0.96 -2.112,2.112 z" stroke-width="0" stroke-linejoin="miter" stroke-miterlimit="2" fill="#7c3aed" stroke="#7c3aed" transform="translate(1.1368683772161603e-13 372.968) translate(485.99824999999987 38.512) scale(1.5) translate(-495.7175 22.976)"></path>         <path id="path527190" style="font-style:normal;font-weight:400;font-size:32px;line-height:1;font-family:'Brandmark Dots 1 Color';font-variant-ligatures:none;text-align:center;text-anchor:middle" d="m 520.1575,-20.288 v 18.176 c 0,1.152 0.96,2.112 2.112,2.112 1.184,0 2.144,-0.96 2.144,-2.112 v -6.816 h 9.216 v 6.816 c 0,1.152 0.96,2.112 2.144,2.112 1.152,0 2.112,-0.96 2.112,-2.112 V -13.92 c 0,-1.152 -0.96,-2.112 -2.112,-2.112 -1.184,0 -2.144,0.96 -2.144,2.112 v 0.992 h -9.216 v -7.36 c 0,-1.152 -0.96,-2.112 -2.144,-2.112 -1.152,0 -2.112,0.96 -2.112,2.112 z m 13.472,0 c 0,1.184 0.96,2.144 2.144,2.144 1.152,0 2.112,-0.96 2.112,-2.144 0,-1.152 -0.96,-2.112 -2.112,-2.112 -1.184,0 -2.144,0.96 -2.144,2.112 z" stroke-width="0" stroke-linejoin="miter" stroke-miterlimit="2" fill="#7c3aed" stroke="#7c3aed" transform="translate(1.1368683772161603e-13 372.968) translate(522.65825 39.376000000000005) scale(1.5) translate(-520.1575 22.4)"></path>         <path id="path527192" style="font-style:normal;font-weight:400;font-size:32px;line-height:1;font-family:'Brandmark Dots 1 Color';font-variant-ligatures:none;text-align:center;text-anchor:middle" d="m 575.295,-9.44 v -4.48 c 0,-1.152 -0.96,-2.112 -2.112,-2.112 -1.184,0 -2.144,0.96 -2.144,2.112 v 4.48 c 0,2.784 -1.44,5.76 -5.504,5.76 -4.992,0 -5.504,-4 -5.504,-5.76 v -10.848 c 0,-1.152 -0.96,-2.112 -2.144,-2.112 -1.152,0 -2.112,0.96 -2.112,2.112 V -9.44 c 0,5.984 3.936,10.016 9.76,10.016 6.72,0 9.76,-5.184 9.76,-10.016 z m -4.256,-10.848 c 0,1.184 0.96,2.144 2.144,2.144 1.152,0 2.112,-0.96 2.112,-2.144 0,-1.152 -0.96,-2.112 -2.112,-2.112 -1.184,0 -2.144,0.96 -2.144,2.112 z" stroke-width="0" stroke-linejoin="miter" stroke-miterlimit="2" fill="#7c3aed" stroke="#7c3aed" transform="translate(1.1368683772161603e-13 372.968) translate(576.0844999999999 39.376000000000005) scale(1.5) translate(-555.775 22.4)"></path>         <path id="path527194" style="font-style:normal;font-weight:400;font-size:32px;line-height:1;font-family:'Brandmark Dots 1 Color';font-variant-ligatures:none;text-align:center;text-anchor:middle" d="m 597.5915,-14.688 c 0,-3.712 -2.176,-7.712 -6.976,-7.712 h -8.096 c -1.152,0 -2.112,0.96 -2.112,2.112 v 18.176 c 0,1.152 0.96,2.112 2.112,2.112 1.184,0 2.144,-0.96 2.144,-2.112 v -16.032 h 5.952 c 2.56,0 2.752,2.624 2.752,3.456 0,0.672 -0.256,1.408 -0.64,2.048 -0.608,0.992 -0.32,2.304 0.704,2.912 0.992,0.64 2.304,0.32 2.912,-0.672 0.8,-1.312 1.248,-2.848 1.248,-4.288 z m -10.816,5.504 c 0,1.184 0.96,2.144 2.112,2.144 1.184,0 2.112,-0.96 2.112,-2.144 0,-1.152 -0.928,-2.112 -2.112,-2.112 -1.152,0 -2.112,0.96 -2.112,2.112 z" stroke-width="0" stroke-linejoin="miter" stroke-miterlimit="2" fill="#7c3aed" stroke="#7c3aed" transform="translate(1.1368683772161603e-13 372.968) translate(613.03325 39.376000000000005) scale(1.5) translate(-580.4075 22.4)"></path>       </g>       <g id="title" style="font-style:normal;font-weight:400;font-size:72px;line-height:1;font-family:'Brandmark Dots 1 Color';font-variant-ligatures:normal;text-align:center;text-anchor:middle" transform="translate(0 0)">         <g id="path527197" aria-label="T" transform="translate(0 297.04) translate(332.56643749999995 26.096000000000004) scale(1.5) translate(-390.73625 50.4)"> <path class="c1" d="M104.75244,120.44112c0,2.59277-2.08789,4.75293-4.75293,4.75293 c-2.66406,0-4.75195-2.16016-4.75195-4.75293v-36.0752H84.80615c-2.5918,0-4.75195-2.16016-4.75195-4.82422 c0-2.5918,2.16016-4.75195,4.75195-4.75195h15.19336c2.88086,0,4.75293,2.16016,4.75293,4.75195V120.44112z" transform="translate(310.68205 -125.18975)" stroke-width="0" stroke-linejoin="miter" stroke-miterlimit="2" fill="#4255ff" stroke="#4255ff"></path> <path class="c3" d="M119.9458,79.5417c0,2.66406-2.16016,4.82422-4.75293,4.82422c-2.66406,0-4.82422-2.16016-4.82422-4.82422 c0-2.5918,2.16016-4.75195,4.82422-4.75195C117.78564,74.78975,119.9458,76.94991,119.9458,79.5417z" transform="translate(310.68205 -125.18975)" stroke-width="0" stroke-linejoin="miter" stroke-miterlimit="2" fill="#7c3aed" stroke="#7c3aed"></path> </g>         <g id="path527199" aria-label="u" transform="translate(0 297.04) translate(402.1167425 26.096000000000004) scale(1.5) translate(-437.10312 50.4)"> <path class="c1" d="M121.96191,103.95186c0,10.87305-6.84082,22.53809-21.96191,22.53809 c-13.10547,0-21.96191-9.07324-21.96191-22.53809V79.5417c0-2.5918,2.16016-4.75195,4.75293-4.75195 c2.66406,0,4.82422,2.16016,4.82422,4.75195v24.41016c0,3.95996,1.15137,12.96094,12.38477,12.96094 c9.14453,0,12.38477-6.69629,12.38477-12.96094V93.8708c0-2.5918,2.16016-4.75195,4.8252-4.75195 c2.5918,0,4.75195,2.16016,4.75195,4.75195V103.95186z" transform="translate(359.06503 -125.18975)" stroke-width="0" stroke-linejoin="miter" stroke-miterlimit="2" fill="#4255ff" stroke="#4255ff"></path> <path class="c3" d="M112.38477,79.5417c0-2.5918,2.16016-4.75195,4.8252-4.75195c2.5918,0,4.75195,2.16016,4.75195,4.75195 c0,2.66406-2.16016,4.82422-4.75195,4.82422C114.54492,84.36592,112.38477,82.20576,112.38477,79.5417z" transform="translate(359.06503 -125.18975)" stroke-width="0" stroke-linejoin="miter" stroke-miterlimit="2" fill="#7c3aed" stroke="#7c3aed"></path> </g>         <g id="path527201" aria-label="t" transform="translate(0 297.04) translate(477.69143749999995 26.096000000000004) scale(1.5) translate(-487.48625 50.4)"> <path class="c1" d="M104.75244,120.44112c0,2.59277-2.08789,4.75293-4.75293,4.75293 c-2.66406,0-4.75195-2.16016-4.75195-4.75293v-36.0752H84.80615c-2.5918,0-4.75195-2.16016-4.75195-4.82422 c0-2.5918,2.16016-4.75195,4.75195-4.75195h15.19336c2.88086,0,4.75293,2.16016,4.75293,4.75195V120.44112z" transform="translate(407.43205 -125.18975)" stroke-width="0" stroke-linejoin="miter" stroke-miterlimit="2" fill="#4255ff" stroke="#4255ff"></path> <path class="c3" d="M119.9458,79.5417c0,2.66406-2.16016,4.82422-4.75293,4.82422c-2.66406,0-4.82422-2.16016-4.82422-4.82422 c0-2.5918,2.16016-4.75195,4.82422-4.75195C117.78564,74.78975,119.9458,76.94991,119.9458,79.5417z" transform="translate(407.43205 -125.18975)" stroke-width="0" stroke-linejoin="miter" stroke-miterlimit="2" fill="#7c3aed" stroke="#7c3aed"></path> </g>         <g id="path527203" aria-label="o" transform="translate(0 297.04) translate(540.2976875 24.152) scale(1.5) translate(-529.22375 51.696)"> <path class="c1" d="M99.96436,126.48994c-14.61719,0-26.49902-11.88086-26.49902-26.57031 c0-8.20898,3.74512-15.69727,10.22559-20.80957c2.01563-1.58398,5.04004-1.22461,6.69629,0.86426 c1.58398,2.01563,1.22363,5.04004-0.86426,6.69629c-4.10449,3.24023-6.48047,7.99219-6.48047,13.24902 c0,9.36035,7.56055,16.99316,16.92188,16.99316c9.36035,0,16.99316-7.63281,16.99316-16.99316 c0-5.25684-2.37598-10.00879-6.55273-13.24902c-2.08789-1.65625-2.44824-4.68066-0.79199-6.69629 c1.58398-2.08887,4.6084-2.44824,6.69629-0.86426c6.48047,5.1123,10.22559,12.60059,10.22559,20.80957 C126.53467,114.60909,114.58154,126.48994,99.96436,126.48994z" transform="translate(455.75841 -125.18887)" stroke-width="0" stroke-linejoin="miter" stroke-miterlimit="2" fill="#4255ff" stroke="#4255ff"></path> <path class="c3" d="M99.96436,73.49287c2.66406,0,4.82422,2.16016,4.82422,4.8252c0,2.5918-2.16016,4.75195-4.82422,4.75195 c-2.59277,0-4.75293-2.16016-4.75293-4.75195C95.21143,75.65303,97.37158,73.49287,99.96436,73.49287z" transform="translate(455.75841 -125.18887)" stroke-width="0" stroke-linejoin="miter" stroke-miterlimit="2" fill="#7c3aed" stroke="#7c3aed"></path> </g>         <g id="path527205" aria-label="r" transform="translate(0 297.04) translate(633.3295625000001 26.096000000000004) scale(1.5) translate(-591.245 50.4)"> <path class="c1" d="M117.85791,90.84639c0-9.79199-6.69727-16.05664-16.99414-16.05664H85.3833 c-2.59277,0-4.75293,2.16016-4.75293,4.75195v40.89941c0,2.59277,2.16016,4.75293,4.75293,4.75293 c2.66406,0,4.82422-2.16016,4.82422-4.75293v-12.96094h10.44043l2.16016,3.45605c1.36816,2.23242,4.32031,2.88086,6.55273,1.44043 c4.39258-2.80859,0.86426-7.41699,0.86426-7.41699C115.19385,102.15205,117.85791,97.03975,117.85791,90.84639z M100.64795,99.19991H90.20752V84.07784h10.65625c4.96875,0,7.41699,2.95313,7.41699,7.34473 C108.28076,95.45479,106.33643,99.19991,100.64795,99.19991z" transform="translate(510.61463 -125.18975)" stroke-width="0" stroke-linejoin="miter" stroke-miterlimit="2" fill="#4255ff" stroke="#4255ff"></path> <path class="c3" d="M114.61768,125.12178c-2.59277,0-4.75293-2.16016-4.75293-4.75195c0-2.66504,2.16016-4.8252,4.75293-4.8252 c2.66406,0,4.75195,2.16016,4.75195,4.8252C119.36963,122.96162,117.28174,125.12178,114.61768,125.12178z" transform="translate(510.61463 -125.18975)" stroke-width="0" stroke-linejoin="miter" stroke-miterlimit="2" fill="#7c3aed" stroke="#7c3aed"></path> </g>            </g>       <image xlink:href="" id="icon" x="0" y="0" style="display: none;"></image>     </g>   </g> </svg>