<?xml version="1.0" standalone="no"?>
<!DOCTYPE svg PUBLIC "-//W3C//DTD SVG 20010904//EN"
 "http://www.w3.org/TR/2001/REC-SVG-20010904/DTD/svg10.dtd">
<svg version="1.0" xmlns="http://www.w3.org/2000/svg"
 width="1176.000000pt" height="1280.000000pt" viewBox="0 0 1176.000000 1280.000000"
 preserveAspectRatio="xMidYMid meet">
<metadata>
Created by potrace 1.15, written by Peter Selinger 2001-2017
</metadata>
<g transform="translate(0.000000,1280.000000) scale(0.100000,-0.100000)"
fill="#000000" stroke="none">
<path d="M0 12764 c0 -38 2 -41 73 -84 39 -25 149 -96 242 -159 948 -638 1864
-1498 2504 -2351 364 -486 683 -1046 893 -1565 185 -459 309 -940 369 -1430
26 -218 37 -724 20 -942 -32 -399 -91 -725 -211 -1153 -202 -721 -195 -1480
20 -2213 285 -975 965 -1832 1855 -2339 600 -342 1298 -528 1981 -528 1077 0
2098 427 2858 1195 582 589 967 1343 1101 2155 45 278 58 480 51 825 -19 997
-173 1848 -486 2690 -424 1138 -1132 2135 -2115 2977 -1105 946 -2567 1695
-4321 2211 -1428 421 -3131 695 -4621 743 l-213 7 0 -39z m635 -85 c734 -42
1569 -145 2360 -290 1889 -347 3554 -943 4890 -1751 450 -272 896 -598 1291
-943 211 -183 572 -548 758 -765 1008 -1176 1563 -2547 1701 -4205 22 -254 31
-830 16 -1010 -113 -1410 -946 -2628 -2213 -3235 -388 -185 -749 -290 -1228
-357 -197 -27 -730 -25 -945 4 -630 86 -1172 289 -1683 630 -883 591 -1483
1500 -1676 2543 -113 612 -83 1193 96 1825 489 1731 111 3471 -1110 5109 -403
540 -986 1151 -1572 1647 -320 270 -771 609 -1076 806 -21 13 59 12 391 -8z"/>
<path d="M1380 12261 c0 -15 480 -495 810 -810 381 -364 751 -755 1003 -1059
119 -144 243 -311 374 -507 327 -486 469 -639 835 -897 201 -141 273 -200 293
-239 19 -35 21 -134 6 -229 -32 -207 -54 -646 -40 -838 32 -467 252 -938 636
-1368 287 -320 295 -340 307 -734 18 -563 117 -942 352 -1341 72 -122 123
-228 124 -256 0 -26 -64 -83 -138 -122 -161 -83 -390 -139 -523 -127 -240 21
-591 245 -697 444 -109 205 -120 320 -132 1469 -9 855 -11 906 -55 1113 -24
116 -71 285 -109 395 -70 202 -81 215 -55 58 80 -468 73 -658 -56 -1433 -25
-146 -69 -391 -99 -546 -115 -591 -145 -817 -153 -1150 -11 -448 50 -835 193
-1218 49 -132 178 -404 251 -531 151 -261 355 -535 545 -731 149 -153 236
-223 391 -317 383 -231 603 -301 987 -314 261 -8 509 19 789 88 356 88 542
196 921 539 74 67 156 133 182 146 59 30 125 31 251 4 172 -36 315 -52 776
-86 199 -14 259 -15 395 -5 297 22 469 56 650 130 199 82 317 165 459 325 217
246 368 532 452 858 61 233 120 620 146 953 15 189 6 627 -16 783 -76 545
-182 794 -758 1774 -86 148 -150 285 -329 713 -157 375 -187 472 -223 715 -16
112 -35 362 -38 510 l-2 105 -27 -86 c-108 -338 -126 -641 -62 -1029 20 -121
116 -506 201 -810 77 -276 103 -386 144 -610 101 -558 74 -857 -94 -1045 -64
-73 -197 -173 -259 -197 -58 -22 -186 -34 -208 -19 -13 9 -15 64 -15 388 -1
408 -10 524 -60 782 -62 318 -167 586 -321 819 -41 61 -109 137 -229 257 -206
204 -201 194 -191 419 18 397 18 501 2 655 -73 683 -279 1059 -841 1537 -295
251 -767 517 -1025 578 -54 13 -114 33 -134 45 -48 30 -117 125 -227 311 -165
281 -253 405 -374 526 -116 118 -208 185 -342 253 -305 153 -921 331 -1613
466 -129 25 -426 84 -660 130 -286 56 -653 119 -1120 190 -382 59 -787 122
-900 141 -250 42 -350 52 -350 35z m524 -211 c55 -11 309 -54 565 -95 636
-102 1445 -250 2166 -396 642 -131 1148 -301 1407 -473 250 -165 525 -571 692
-1018 57 -154 77 -248 83 -400 8 -194 -25 -557 -63 -687 -36 -124 -81 -140
-234 -86 -54 19 -78 40 -98 85 -13 29 -17 113 -23 490 -4 250 -12 493 -18 539
-22 173 -58 274 -165 454 -96 163 -173 232 -416 369 -552 313 -1000 445 -2000
592 -129 19 -338 57 -465 85 -347 76 -455 84 -455 35 0 -24 74 -122 190 -254
154 -174 348 -433 635 -850 311 -453 529 -722 788 -977 186 -183 247 -263 247
-325 0 -49 -15 -78 -41 -78 -28 0 -238 111 -354 188 -231 153 -390 345 -750
907 -284 442 -1092 1306 -1682 1797 -79 66 -143 121 -143 124 0 3 8 3 18 0 9
-2 62 -14 116 -26z m1917 -775 c102 -13 232 -34 290 -46 173 -34 787 -185 894
-219 417 -134 864 -384 987 -554 38 -53 37 -81 -4 -96 -92 -32 -449 -32 -683
1 -227 31 -385 107 -584 279 -96 82 -157 125 -207 146 -59 25 -124 -7 -124
-61 0 -9 25 -42 55 -73 43 -43 70 -85 120 -186 131 -269 217 -582 219 -801 2
-196 -65 -193 -271 12 -116 116 -202 217 -345 408 -322 430 -798 1143 -798
1195 0 10 6 21 13 24 24 11 255 -4 438 -29z m1210 -1009 c309 -64 789 -102
1034 -82 127 11 130 8 122 -102 -8 -102 -22 -139 -61 -159 -36 -19 -312 -33
-661 -32 l-210 1 -7 -214 c-25 -785 -46 -1037 -103 -1253 -39 -150 -50 -254
-49 -500 1 -327 30 -519 100 -658 40 -77 161 -250 295 -422 186 -237 183 -231
176 -316 -8 -95 -32 -143 -74 -147 -122 -12 -418 306 -572 616 -124 247 -188
497 -212 822 -15 212 -2 407 46 700 59 355 87 882 67 1258 -15 273 -30 366
-76 462 -20 40 -33 77 -30 81 2 4 35 -3 73 -16 38 -14 102 -31 142 -39z m2113
-271 c188 -76 576 -283 746 -398 412 -278 726 -736 856 -1247 58 -233 78 -517
50 -725 -38 -287 -151 -615 -348 -1008 -172 -344 -329 -592 -595 -941 -172
-224 -258 -326 -277 -326 -44 0 -176 128 -176 171 0 9 30 73 66 141 37 68 98
181 137 253 38 71 120 206 182 300 131 199 203 325 295 519 238 500 382 1003
367 1286 -17 332 -188 753 -426 1050 -76 96 -225 243 -316 315 -121 95 -202
144 -412 248 -204 103 -256 141 -273 206 -16 65 -40 176 -40 190 0 20 59 8
164 -34z m-918 -287 c34 -54 44 -298 19 -443 -30 -169 -53 -191 -200 -189
-151 2 -420 56 -522 105 -67 32 -75 53 -84 216 -5 78 -15 172 -22 208 -12 56
-12 69 0 80 23 24 116 27 383 15 252 -11 360 -8 391 11 19 12 26 11 35 -3z
m981 -157 c202 -102 456 -284 581 -416 213 -225 425 -654 486 -984 25 -134 16
-390 -15 -428 -19 -22 -94 41 -429 355 -250 234 -451 396 -603 483 -193 112
-254 150 -281 175 l-29 27 7 101 c10 163 82 595 117 704 15 46 46 42 166 -17z
m-1593 -528 c61 -25 269 -101 461 -168 493 -173 809 -296 974 -379 293 -149
920 -709 1086 -970 43 -67 50 -127 21 -171 -30 -46 -77 -28 -156 59 -125 139
-850 684 -1245 937 -127 81 -396 209 -558 265 -106 36 -590 139 -754 159 -59
8 -63 14 -63 111 0 81 18 175 38 197 22 24 55 18 196 -40z m96 -483 c214 -27
398 -77 430 -117 20 -26 19 -52 -6 -188 -44 -237 -383 -1348 -423 -1388 -25
-25 -208 195 -316 378 -108 183 -131 311 -122 670 10 389 50 621 109 645 32
12 226 12 328 0z m812 -253 c54 -24 57 -27 63 -69 25 -167 -148 -934 -428
-1893 l-82 -280 1 -160 c2 -361 103 -861 243 -1202 50 -121 94 -257 107 -326
9 -51 -36 -140 -111 -224 -55 -61 -75 -75 -75 -52 0 6 -18 37 -41 68 -48 67
-154 253 -211 371 -161 334 -226 772 -215 1441 8 501 19 552 257 1274 173 524
268 857 286 998 8 70 33 91 98 84 28 -3 77 -16 108 -30z m343 -222 c211 -113
643 -437 923 -693 85 -79 210 -230 256 -309 9 -16 -182 -407 -273 -563 -40
-66 -130 -208 -200 -314 -71 -107 -166 -260 -211 -340 -89 -157 -141 -226
-169 -226 -40 0 -223 132 -613 442 -172 136 -252 206 -250 217 2 9 37 138 77
286 132 485 187 723 246 1073 59 349 90 462 128 462 10 0 49 -16 86 -35z
m3250 -507 c127 -324 173 -438 250 -618 172 -405 301 -667 455 -925 173 -289
321 -662 418 -1050 63 -253 72 -333 72 -673 0 -491 -24 -699 -126 -1102 -78
-307 -117 -426 -194 -586 -197 -413 -490 -662 -885 -752 -293 -68 -936 -51
-1379 34 -259 51 -500 134 -749 261 -164 83 -276 158 -394 263 -251 222 -746
833 -849 1047 -39 81 -44 167 -13 207 31 39 76 57 122 46 87 -19 199 -125 427
-405 130 -159 335 -368 460 -468 329 -264 702 -442 1059 -506 307 -56 783 -50
1052 13 470 109 771 417 969 993 141 408 180 761 139 1258 -34 417 -129 945
-170 945 -5 0 -8 -93 -7 -207 1 -185 -1 -218 -21 -298 -86 -352 -271 -568
-574 -671 -134 -46 -419 -79 -465 -55 -26 14 -29 63 -10 139 18 76 38 97 111
115 83 20 243 80 337 125 54 26 95 56 147 108 159 157 222 398 202 769 -17
324 -105 759 -269 1335 -101 354 -118 421 -139 546 -24 144 -35 234 -28 234 2
0 26 -55 52 -122z m-1164 -625 c273 -261 477 -618 580 -1013 94 -359 104 -844
29 -1287 -109 -633 -419 -1478 -650 -1768 -21 -27 -71 -93 -109 -146 -125
-172 -150 -180 -328 -102 -117 51 -157 81 -146 110 3 10 33 52 66 93 132 165
252 375 534 935 102 204 200 395 218 425 46 76 52 107 70 335 9 110 22 269 30
354 58 604 -45 1049 -370 1611 -96 167 -125 242 -132 341 -7 88 7 140 44 169
48 37 75 28 164 -57z m-275 -508 c107 -82 251 -399 337 -742 90 -358 117 -754
59 -873 l-17 -35 -93 2 c-112 2 -233 31 -485 114 -325 106 -672 256 -700 301
-8 13 -2 34 27 93 48 97 235 376 363 542 165 215 236 318 323 473 87 155 119
176 186 125z m-4188 -560 c-9 -494 -3 -1164 12 -1335 17 -181 83 -379 170
-505 132 -191 416 -354 700 -401 185 -30 333 -11 558 74 183 69 228 98 367
237 91 91 158 172 275 334 347 480 465 625 542 667 33 19 73 17 117 -5 54 -28
65 -44 58 -94 -11 -82 -268 -548 -427 -772 -238 -337 -481 -569 -750 -718
-289 -159 -617 -190 -900 -84 -199 75 -321 167 -582 437 -101 105 -186 190
-190 190 -13 0 -9 -27 16 -102 13 -40 52 -161 86 -268 120 -376 396 -969 558
-1200 217 -309 483 -521 787 -628 141 -50 447 -103 707 -122 355 -27 599 59
886 312 204 180 215 186 288 167 22 -6 100 -37 174 -69 74 -31 152 -63 173
-70 80 -26 60 -67 -118 -246 -241 -242 -387 -334 -695 -437 -173 -58 -433
-113 -640 -137 -118 -14 -365 -9 -450 10 -192 41 -486 162 -692 283 -292 172
-552 433 -795 797 -266 398 -415 763 -497 1210 -43 240 -51 339 -51 650 1 322
12 457 66 765 16 94 76 465 134 825 109 674 114 705 119 699 1 -2 -2 -211 -6
-464z m1863 134 c20 -10 87 -58 150 -106 182 -141 346 -258 609 -433 249 -166
346 -234 434 -308 99 -82 455 -240 839 -371 222 -76 337 -106 452 -121 154
-20 181 -45 170 -159 -16 -151 -29 -151 -513 23 -328 118 -440 165 -672 282
-218 110 -415 228 -547 330 -60 45 -206 142 -326 214 -463 280 -649 421 -693
525 -19 47 -18 114 3 137 18 20 33 18 94 -13z m4 -532 c76 -37 297 -183 414
-274 136 -106 157 -152 111 -244 -40 -79 -154 -243 -206 -297 l-52 -54 -31 17
c-83 42 -177 232 -267 539 -61 209 -81 346 -51 346 7 0 44 -15 82 -33z m4471
-897 c10 -166 14 -315 10 -400 -27 -582 -247 -1156 -562 -1465 -127 -125 -222
-174 -424 -219 -416 -92 -800 -97 -947 -11 -24 15 -47 33 -49 40 -9 22 29 94
95 184 148 198 285 449 431 786 58 136 95 238 154 425 26 80 56 163 69 185 34
60 55 67 178 59 121 -7 218 9 359 58 249 88 460 236 565 398 43 66 95 184 95
216 0 9 2 15 5 13 2 -3 12 -124 21 -269z m-3225 124 c30 -9 140 -52 244 -96
445 -189 736 -295 897 -328 57 -12 117 -26 133 -32 94 -34 77 -101 -127 -498
-290 -565 -463 -857 -533 -900 -79 -49 -215 -10 -367 106 -91 70 -260 235
-387 379 -127 144 -491 581 -491 590 0 3 52 102 116 218 185 336 316 526 387
561 41 20 60 20 128 0z m-1009 -1309 c43 -29 94 -101 163 -230 123 -229 349
-529 565 -750 164 -168 220 -233 220 -255 0 -31 -41 -71 -182 -176 -213 -159
-303 -206 -459 -238 -311 -63 -757 6 -1097 169 -153 73 -242 138 -359 258
-267 276 -466 603 -621 1022 -47 125 -55 168 -32 172 9 2 69 -31 135 -73 202
-130 329 -180 520 -205 172 -22 393 8 568 77 108 42 169 76 291 157 156 104
218 120 288 72z"/>
</g>
</svg>
